<svg xmlns="http://www.w3.org/2000/svg" width="405.036" height="110.414" viewBox="0 0 405.036 110.414">
  <g id="Group_21" data-name="Group 21" transform="translate(-1078.964 -2426)">
    <rect id="Rectangle_14" data-name="Rectangle 14" width="405.036" height="103.41" rx="51.705" transform="translate(1078.964 2426)" fill="#19d58f"/>
    <text id="_731_218_506_" data-name="731 218 506
" transform="translate(1199.276 2491.414)" fill="#fff" font-size="43" font-family="Montserrat-Bold, Montserrat" font-weight="700"><tspan x="0" y="0">731 218 506</tspan><tspan x="0" y="34"></tspan></text>
    <g id="telephone" transform="translate(1122.544 2447)">
      <g id="Group_16" data-name="Group 16" transform="translate(0.006)">
        <path id="Path_42" data-name="Path 42" d="M46.381,80.634a4.274,4.274,0,0,0-6.461,0c-1.511,1.5-3.021,3-4.506,4.519a.89.89,0,0,1-1.244.228c-.977-.533-2.018-.965-2.958-1.549a46.86,46.86,0,0,1-11.3-10.282,26.765,26.765,0,0,1-4.049-6.486.929.929,0,0,1,.228-1.193c1.511-1.46,2.983-2.958,4.468-4.455,2.069-2.082,2.069-4.519-.013-6.613-1.18-1.193-2.361-2.361-3.541-3.554-1.219-1.219-2.424-2.45-3.656-3.656a4.3,4.3,0,0,0-6.461.013c-1.523,1.5-2.983,3.034-4.532,4.506A7.356,7.356,0,0,0,.05,57.074a21.028,21.028,0,0,0,1.625,9.05,55,55,0,0,0,9.761,16.26,60.406,60.406,0,0,0,20,15.651,28.932,28.932,0,0,0,11.081,3.224,8.121,8.121,0,0,0,6.969-2.653c1.295-1.447,2.754-2.767,4.125-4.151a4.318,4.318,0,0,0,.025-6.575Q50.024,84.245,46.381,80.634Z" transform="translate(-0.006 -40.281)" fill="#fff"/>
        <path id="Path_43" data-name="Path 43" d="M251.614,114.05l4.684-.8A21.025,21.025,0,0,0,238.514,96l-.66,4.709a16.249,16.249,0,0,1,13.76,13.341Z" transform="translate(-207.663 -83.814)" fill="#fff"/>
        <path id="Path_44" data-name="Path 44" d="M263.216,9.876A34.537,34.537,0,0,0,243.414,0l-.66,4.709a30.137,30.137,0,0,1,25.5,24.714l4.684-.8A34.791,34.791,0,0,0,263.216,9.876Z" transform="translate(-211.941)" fill="#fff"/>
      </g>
    </g>
  </g>
</svg>
