<svg xmlns="http://www.w3.org/2000/svg" width="129.183" height="185" viewBox="0 0 129.183 185">
  <g id="iconfinder_fix_repair_phone_wrench_tool_fixing_4014665" transform="translate(-13.285 -0.005)">
    <path id="Path_45" data-name="Path 45" d="M17.462,124.008a14.454,14.454,0,0,0,3.9,2.717,87.737,87.737,0,0,0,6.129,28.07,29.487,29.487,0,0,1,2.313,11.3v10.234A8.673,8.673,0,0,0,38.479,185h34.69a8.673,8.673,0,0,0,8.673-8.673,21.768,21.768,0,0,1,4.8-13.616l18.877-23.531c.318-.347.607-.723.9-1.07s.578-.607.838-.954.549-.781.809-1.185l.723-1.041c.26-.434.434-.867.665-1.272s.4-.752.578-1.127.376-.925.549-1.388l.434-1.127a7.623,7.623,0,0,1,.376-1.5c.116-.52.2-.723.289-1.1a8.846,8.846,0,0,1,.2-1.59c.2-.52,0-.723.173-1.1a6.349,6.349,0,0,0,0-1.821v-.9a21.593,21.593,0,0,0-.26-2.717h0l-.231-1.388-2.891-18.733a23.126,23.126,0,0,0-1.735-5.782h0a1.937,1.937,0,0,0-.173-.347A23.127,23.127,0,0,0,93.9,81.253l-9.019-3.209,10.031-9.829,10.06-10.407a2.891,2.891,0,0,1,2.6-.752,28.931,28.931,0,0,0,34.719-31.481,5.782,5.782,0,0,0-9.887-3.382l-8.037,8.21a2.891,2.891,0,0,1-4.1,0l-8.094-8.065a3,3,0,0,1,.029-4.192l8.065-8.21A5.733,5.733,0,0,0,116.849.164a29.371,29.371,0,0,0-11.563,1.1,28.908,28.908,0,0,0-19.773,33.62,2.891,2.891,0,0,1-.781,2.688L67.907,54.05a11.563,11.563,0,0,0-20.5,4.481A11.563,11.563,0,0,0,32.7,69.66a11.13,11.13,0,0,0,.723,4.018h-.694a11.563,11.563,0,0,0-8.441,16.738,11.563,11.563,0,0,0-7.69,14.136,14.454,14.454,0,0,0,.867,19.369Zm2.4-13.963.52.376a7,7,0,0,0,.9.723,11.968,11.968,0,0,0,1.792,1.012l11.563,4.972a10.349,10.349,0,0,0,1.59.549l-2.342,2.313a9.019,9.019,0,0,1-1.185.954l-.4.26-.954.491-.52.231-1.1.318h-1.3a9.308,9.308,0,0,1-3.3-.4h0a8.412,8.412,0,0,1-3.382-2.052,8.673,8.673,0,0,1-1.706-9.887Zm77.706-19.86a17.345,17.345,0,0,1,5.261,9.916l3.267,20.236a16.447,16.447,0,0,1,.2,2.052,17.547,17.547,0,0,1-5,12.951l-.2.2L82.13,158.987a27.463,27.463,0,0,0-6.071,17.345,2.891,2.891,0,0,1-2.891,2.891H38.479a2.891,2.891,0,0,1-2.891-2.891V166.1A34.979,34.979,0,0,0,32.7,152.57a81.464,81.464,0,0,1-5.608-24.37h.491a12.548,12.548,0,0,0,1.792-.173,6.1,6.1,0,0,0,.723,0,12.316,12.316,0,0,0,2.024-.549l.723-.2a16.072,16.072,0,0,0,2.11-1.07l.463-.231a15.033,15.033,0,0,0,2.284-1.821l16.218-15.929a10.841,10.841,0,0,0,4.914-2.891l.173-.145a14.193,14.193,0,0,0,1.185-1.388A11.014,11.014,0,0,0,62.1,99.465a11.939,11.939,0,0,0,2.688-.26,19.773,19.773,0,0,0,7.4,4.568l6.88,2.631a4.365,4.365,0,0,1,2.891,3.585,4.481,4.481,0,0,1-2.891,4.683c-15.495,5.782-24.254,15.726-26.018,29.458a2.891,2.891,0,0,0,2.4,3.3h.376a2.891,2.891,0,0,0,2.891-2.515c1.561-11.563,8.875-19.716,22.375-24.774a10.32,10.32,0,0,0,6.533-10.812,10.118,10.118,0,0,0-6.389-8.152L74.267,98.28A14.454,14.454,0,0,1,67.85,93.8a9.538,9.538,0,0,1-.983-1.417c-.173-.26-.347-.52-.491-.781a12.751,12.751,0,0,1-.809-1.677c-.145-.376-.289-.752-.4-1.156s-.2-.723-.289-1.07-.145-.867-.2-1.3a7.459,7.459,0,0,1,0-1.127,1.388,1.388,0,0,1,0-.347,9.742,9.742,0,0,1,0-1.59,3.929,3.929,0,0,1,0-.578,2.254,2.254,0,0,1,0-.463,14.049,14.049,0,0,1,.549-2.37A2.891,2.891,0,0,1,68.832,78.1l22.9,8.615A17.778,17.778,0,0,1,97.567,90.185ZM88.692,41.561a8.673,8.673,0,0,0,2.342-7.892,22.491,22.491,0,0,1,.231-10.552,22.924,22.924,0,0,1,15.553-16.3,22.433,22.433,0,0,1,9.337-.867l-8.065,8.21a8.673,8.673,0,0,0,0,12.286l8.181,8.239a8.9,8.9,0,0,0,12.286,0l8.21-8.355h0a23.474,23.474,0,0,1-.838,9.251,22.838,22.838,0,0,1-16.507,15.7,22.462,22.462,0,0,1-10.638.231,8.673,8.673,0,0,0-7.921,2.342L80.338,74.083V73.91a10.551,10.551,0,0,0-1.012-2.168h0L71.145,58.993ZM55.621,56.015A5.782,5.782,0,0,1,63.6,57.808l1.417,2.226h0l8.673,13.7L70.8,72.667a8.5,8.5,0,0,0-6.62.434,7.546,7.546,0,0,0-.809.491L53.106,62.173a5.782,5.782,0,0,1,2.515-6.1ZM40.184,65.526a5.782,5.782,0,0,1,8.239,0L59.755,78.159c-.145.463-.26.925-.4,1.417A20.236,20.236,0,0,0,60.565,92.96L44.81,78.246l-4.625-4.625a5.782,5.782,0,0,1,0-8.152ZM29.806,81.8a5.782,5.782,0,0,1,8.065-1.3l2.891,2.2L56.517,97.354h0a5.782,5.782,0,0,1-1.07,2.891h0a5.174,5.174,0,0,1-.636.723h0a6.146,6.146,0,0,1-6.013,1.156L33.159,91.139h0l-2.168-1.59A5.782,5.782,0,0,1,29.806,81.8ZM22.319,99.147a5.86,5.86,0,0,1,7.632-3.006h.231L44.81,106.4a5.782,5.782,0,0,1-.434,2.226,5.608,5.608,0,0,1-3.006,3.267,5.782,5.782,0,0,1-4.423,0l-11.563-5h0a5.118,5.118,0,0,1-.954-.549h0a6.273,6.273,0,0,1-1.735-2.168h0l-.173-.318a5.782,5.782,0,0,1-.145-4.625Z" transform="translate(0 0)" fill="#fff"/>
    <path id="Path_46" data-name="Path 46" d="M25.641,12.306a1.474,1.474,0,0,0,.665,1.937l5.782,2.891a1.561,1.561,0,0,0,.636.145,1.445,1.445,0,0,0,.636-2.746l-5.782-2.891a1.474,1.474,0,0,0-1.937.665Z" transform="translate(23.1 21.739)" fill="#fff"/>
    <path id="Path_47" data-name="Path 47" d="M33.718,16.163a1.359,1.359,0,0,0,1.012-.434,1.388,1.388,0,0,0,0-2.024L28.948,7.924a1.431,1.431,0,1,0-2.024,2.024l5.782,5.782a1.359,1.359,0,0,0,1.012.434Z" transform="translate(24.997 14.182)" fill="#fff"/>
    <path id="Path_48" data-name="Path 48" d="M34.391,12.836V9.945a1.445,1.445,0,1,0-2.891,0v2.891a1.445,1.445,0,1,0,2.891,0Z" transform="translate(34.442 16.063)" fill="#fff"/>
  </g>
</svg>
