<svg xmlns="http://www.w3.org/2000/svg" width="182.265" height="119.194" viewBox="0 0 182.265 119.194">
  <g id="responsive-symbol-with-a-widescreen-monitor-a-cellphone-and-a-tablet" transform="translate(0 -8.449)">
    <g id="Layer_20_51_" transform="translate(0 8.449)">
      <g id="Group_14" data-name="Group 14">
        <path id="Path_36" data-name="Path 36" d="M15.42,42.615H40.838v5.864H15.42v4.834H95.363V48.479H65.727V42.615H98.688V29.227H15.42Z" transform="translate(42.135 48.327)" fill="#fff"/>
        <path id="Path_37" data-name="Path 37" d="M17.091,18.833H138.278v48.44h10.384V8.449H6.707V40.888H17.091Z" transform="translate(18.327 -8.449)" fill="#fff"/>
        <path id="Path_38" data-name="Path 38" d="M0,99.329H54.207V18.013H0Zm28.248-4.083a2.609,2.609,0,1,1,2.609-2.609A2.61,2.61,0,0,1,28.248,95.246ZM7.838,25.851H46.376l0,59.989H7.838Z" transform="translate(0 17.685)" fill="#fff"/>
        <path id="Path_39" data-name="Path 39" d="M38.715,25.046V82.291H76.477V25.046Zm19.648,2.366a.827.827,0,1,1-.832.825A.829.829,0,0,1,58.363,27.412Zm-4.9,2.747h9.79v.791h-9.79ZM58.034,79.82a1.958,1.958,0,1,1,1.96-1.96A1.956,1.956,0,0,1,58.034,79.82ZM71.016,73.08c-8.839.049-22.455.082-26.833.045V33.765l26.833,0Z" transform="translate(105.789 36.902)" fill="#fff"/>
      </g>
    </g>
  </g>
</svg>
