<svg xmlns="http://www.w3.org/2000/svg" width="126.587" height="145.34" viewBox="0 0 126.587 145.34">
  <path id="gear" d="M119.553,32.819H73.64L81.359,25.1a2.338,2.338,0,0,0,.687-1.657V11.722a2.34,2.34,0,0,0-.687-1.657L71.982.687a2.344,2.344,0,0,0-4,1.657V14.066H58.6V2.345a2.344,2.344,0,0,0-4-1.657l-9.377,9.377a2.34,2.34,0,0,0-.687,1.657V23.442a2.338,2.338,0,0,0,.687,1.657l7.719,7.719H7.032A7.042,7.042,0,0,0,0,39.852v75.014A7.041,7.041,0,0,0,7.032,121.9H53.916v4.688H49.227A16.431,16.431,0,0,0,32.818,143a2.342,2.342,0,0,0,2.344,2.344H91.423A2.341,2.341,0,0,0,93.767,143a16.431,16.431,0,0,0-16.409-16.409H72.669V121.9h46.884a7.04,7.04,0,0,0,7.033-7.033V39.852a7.041,7.041,0,0,0-7.033-7.033Zm-46.884,42.2a9.377,9.377,0,1,1-9.377-9.377A9.386,9.386,0,0,1,72.669,75.015Zm-23.442,0A14.065,14.065,0,1,0,72.669,64.56V58.854c.112.066.23.118.342.188a2.354,2.354,0,0,0,2.881-.342l1.465-1.467,3.718,3.718-1.467,1.465a2.346,2.346,0,0,0-.342,2.879,18.489,18.489,0,0,1,2.3,5.554,2.343,2.343,0,0,0,2.286,1.823h2.883v4.688H83.851a2.346,2.346,0,0,0-2.286,1.825,18.6,18.6,0,0,1-2.276,5.574,2.346,2.346,0,0,0,.342,2.881l1.443,1.441L77.358,92.8l-1.441-1.442a2.335,2.335,0,0,0-2.881-.342,18.659,18.659,0,0,1-5.574,2.277,2.337,2.337,0,0,0-1.825,2.282v2.883H60.948V95.573a2.344,2.344,0,0,0-1.821-2.285,18.7,18.7,0,0,1-5.551-2.3,2.34,2.34,0,0,0-2.881.342L49.227,92.8,45.51,89.08l1.467-1.467a2.345,2.345,0,0,0,.342-2.881,18.65,18.65,0,0,1-2.3-5.55,2.343,2.343,0,0,0-2.286-1.822H39.851V72.671h2.883a2.344,2.344,0,0,0,2.286-1.823A18.56,18.56,0,0,1,47.3,65.273a2.352,2.352,0,0,0-.342-2.881L45.51,60.95l3.718-3.718,1.442,1.442a2.352,2.352,0,0,0,2.881.342c.119-.073.246-.129.365-.2V64.56a14.024,14.024,0,0,0-4.688,10.455ZM53.916,53.6c-.394.173-.8.314-1.184.508L50.885,52.26a2.343,2.343,0,0,0-3.315,0l-7.033,7.033a2.341,2.341,0,0,0,0,3.315l1.847,1.85a22.989,22.989,0,0,0-1.439,3.525h-3.44a2.344,2.344,0,0,0-2.344,2.344V79.7a2.342,2.342,0,0,0,2.344,2.344h3.444a23.251,23.251,0,0,0,1.458,3.5l-1.871,1.87a2.341,2.341,0,0,0,0,3.315L47.57,97.77a2.341,2.341,0,0,0,3.315,0l1.87-1.87a23.35,23.35,0,0,0,3.5,1.458V100.8a2.342,2.342,0,0,0,2.344,2.344h9.377a2.341,2.341,0,0,0,2.344-2.344V97.362a23,23,0,0,0,3.528-1.44L75.7,97.77a2.341,2.341,0,0,0,3.315,0l7.033-7.033a2.341,2.341,0,0,0,0-3.315L84.2,85.576a23.052,23.052,0,0,0,1.44-3.529h3.438A2.341,2.341,0,0,0,91.423,79.7V70.326a2.344,2.344,0,0,0-2.344-2.344H85.636a23.51,23.51,0,0,0-1.458-3.506l1.87-1.869a2.343,2.343,0,0,0,0-3.315L79.015,52.26a2.343,2.343,0,0,0-3.315,0l-1.87,1.869c-.382-.2-.774-.335-1.161-.509V46.884h39.851v60.949H14.065V46.884H53.916ZM49.227,12.692,53.916,8V16.41a2.344,2.344,0,0,0,2.344,2.344H70.325a2.343,2.343,0,0,0,2.344-2.344V8l4.688,4.688v9.781l-8.69,8.689a2.34,2.34,0,0,0-.687,1.657V61.77a13.8,13.8,0,0,0-9.377,0V32.819a2.34,2.34,0,0,0-.687-1.657l-8.69-8.689Zm39.614,127.96h-51.1a11.741,11.741,0,0,1,11.484-9.377h28.13a11.739,11.739,0,0,1,11.484,9.377ZM67.981,126.587H58.6V121.9h9.377ZM121.9,114.866a2.344,2.344,0,0,1-2.344,2.344H7.032a2.345,2.345,0,0,1-2.344-2.344V39.852a2.347,2.347,0,0,1,2.344-2.344H53.916V42.2H11.72A2.344,2.344,0,0,0,9.376,44.54v65.637a2.342,2.342,0,0,0,2.344,2.344H114.865a2.341,2.341,0,0,0,2.344-2.344V44.54a2.344,2.344,0,0,0-2.344-2.344h-42.2V37.508h46.884a2.346,2.346,0,0,1,2.344,2.344Zm0,0" transform="translate(0.001 -0.001)" fill="#fff"/>
</svg>
