<svg id="Wi-Fi" xmlns="http://www.w3.org/2000/svg" width="111.107" height="88.156" viewBox="0 0 111.107 88.156">
  <g id="Group_15" data-name="Group 15" transform="translate(0 0)">
    <path id="Path_40" data-name="Path 40" d="M55.553,148.563c-5.6,0-10.146,4.937-10.146,11.02s4.546,11.02,10.146,11.02S65.7,165.666,65.7,159.583,61.153,148.563,55.553,148.563Zm54.364-38.528C96.348,92.5,76.532,82.446,55.553,82.446S14.761,92.5,1.189,110.035a5.837,5.837,0,0,0,.622,7.761,4.81,4.81,0,0,0,3.257,1.293,4.914,4.914,0,0,0,3.889-1.965c11.634-15.034,28.619-23.659,46.6-23.659s34.961,8.625,46.6,23.655a4.914,4.914,0,0,0,3.89,1.965,4.8,4.8,0,0,0,3.26-1.293A5.836,5.836,0,0,0,109.916,110.035Zm-54.364-5.55c-14.986,0-29.137,7.181-38.83,19.7a5.838,5.838,0,0,0,.622,7.761,4.818,4.818,0,0,0,3.26,1.293,4.9,4.9,0,0,0,3.886-1.965C32.247,121.253,43.57,115.5,55.553,115.5s23.306,5.749,31.064,15.773a4.9,4.9,0,0,0,3.886,1.965,4.8,4.8,0,0,0,3.26-1.293,5.838,5.838,0,0,0,.622-7.761C84.69,111.666,70.539,104.485,55.553,104.485Zm0,22.039a29.47,29.47,0,0,0-23.3,11.82,5.837,5.837,0,0,0,.622,7.761,4.818,4.818,0,0,0,3.26,1.293,4.9,4.9,0,0,0,3.886-1.965,19.23,19.23,0,0,1,31.061,0,4.9,4.9,0,0,0,3.886,1.965,4.8,4.8,0,0,0,3.26-1.293,5.838,5.838,0,0,0,.622-7.761A29.471,29.471,0,0,0,55.553,126.524Z" transform="translate(0.001 -82.446)" fill="#fff"/>
  </g>
</svg>
