<svg xmlns="http://www.w3.org/2000/svg" width="166.021" height="166.156" viewBox="0 0 166.021 166.156">
  <g id="iconfinder_global_service_support_call_247_24-7_planet_4014666" transform="translate(-0.027)">
    <path id="Path_49" data-name="Path 49" d="M82.976,0a83.019,83.019,0,1,0,29.446,160.667,2.59,2.59,0,0,0-1.816-4.851A77.83,77.83,0,0,1,10.334,111.193c13.724,18.913,39.252,30.9,70.41,31.5a10.377,10.377,0,0,0,10.014,7.783h5.189a10.377,10.377,0,0,0,0-20.755H90.759a10.377,10.377,0,0,0-9.988,7.783c-36.891-.7-65.248-18.16-73.472-43.974a61.771,61.771,0,0,0,21.689,10.248,111.166,111.166,0,0,0,3.269,13.491,1.323,1.323,0,0,0,1.245.908h.389a1.323,1.323,0,0,0,.856-1.634,101.178,101.178,0,0,1-2.983-11.986,175.767,175.767,0,0,0,25.269,4.41h0c.6,5.552,1.375,10.9,2.361,15.929a1.323,1.323,0,0,0,1.271,1.038h.259a1.271,1.271,0,0,0,1.012-1.531,217.926,217.926,0,0,1-3.658-39.953H67.41a1.3,1.3,0,0,0,0-2.594H58.33A215.406,215.406,0,0,1,59.5,59.67c7.057-.726,14.5-1.116,22.182-1.167V77.83a1.3,1.3,0,1,0,2.594,0V58.373A215.922,215.922,0,0,1,106.48,59.54c.415,4.255.752,8.639.934,13.153a1.3,1.3,0,0,0,1.349,1.245,1.323,1.323,0,0,0,1.245-1.349c-.182-4.41-.493-8.665-.882-12.764a169.358,169.358,0,0,1,25.554,4.722,115.289,115.289,0,0,1,1.453,17.175h-3.866a1.3,1.3,0,1,0,0,2.594h28.538a77.829,77.829,0,0,1-5.007,26.333,2.59,2.59,0,1,0,4.851,1.816A83.019,83.019,0,0,0,82.976,0Zm7.783,134.905h5.189a5.189,5.189,0,0,1,0,10.377H90.759a5.189,5.189,0,1,1,0-10.377Zm66.519-75.054a68.491,68.491,0,0,0-28.252-22.882A68.49,68.49,0,0,0,106.143,8.717,78.193,78.193,0,0,1,157.278,59.851Zm2.983,14.165c-4.644-4.566-12.738-8.535-23.349-11.6a104.577,104.577,0,0,0-6.33-21.818C144.721,47.788,155.176,58.113,159.638,70A40.579,40.579,0,0,1,160.261,74.016ZM5.146,81.722a27.548,27.548,0,0,1,.13-3.269c3.165-5.059,11.545-9.625,23.349-13.127a116.229,116.229,0,0,0-1.3,16.4Zm.519-7.783c.156-1.349.337-2.594.571-4.021C10.7,58.035,21.153,47.71,35.292,40.524a104.577,104.577,0,0,0-6.33,21.818C18.429,65.481,10.334,69.45,5.691,74.016ZM38.872,38.915a100.064,100.064,0,0,1,22.752-7.057,172.676,172.676,0,0,0-4.592,25.217A172.677,172.677,0,0,0,31.738,61.59a100.064,100.064,0,0,1,7.134-22.675Zm1.712-3.528C47.745,21.222,58.07,10.766,70,6.3c1.323-.233,2.594-.415,4.021-.571-4.566,4.644-8.535,12.738-11.6,23.349a104.578,104.578,0,0,0-21.87,6.278ZM78.41,5.344a27.548,27.548,0,0,0,3.269-.13V27.266a116.227,116.227,0,0,0-16.4,1.3C68.785,16.889,73.351,8.509,78.41,5.344Zm5.863-.156a26.9,26.9,0,0,1,3.243.13c5.189,3.191,9.651,11.519,13.153,23.349a116.229,116.229,0,0,0-16.4-1.3Zm7.783.519c1.349.156,2.594.337,4.021.571,11.882,4.462,22.208,14.917,29.394,29.057A106.185,106.185,0,0,0,103.653,29C100.514,18.42,96.518,10.377,91.978,5.733ZM59.808,8.717A68.49,68.49,0,0,0,36.926,36.969,68.49,68.49,0,0,0,8.674,59.851,78.193,78.193,0,0,1,59.808,8.717ZM6,88.545c-.285-1.4-.519-2.8-.675-4.229h21.9a117.5,117.5,0,0,0,1.271,16.4C17.521,97.391,9.556,93.163,6,88.545Zm50.849,17.823a166.557,166.557,0,0,1-25.58-4.748,113.4,113.4,0,0,1-1.453-17.2H55.761C55.787,91.788,56.15,99.156,56.851,106.368ZM55.735,81.722H29.792a115.29,115.29,0,0,1,1.453-17.175A169.362,169.362,0,0,1,56.8,59.825C56.15,66.752,55.787,74.094,55.735,81.722Zm4.047-24.854A169.359,169.359,0,0,1,64.5,31.314a115.291,115.291,0,0,1,17.175-1.453V55.8C74.051,55.83,66.709,56.193,59.782,56.868Zm24.491-1.09V29.835a115.914,115.914,0,0,1,17.2,1.453,172.033,172.033,0,0,1,4.851,25.58Q95.7,55.856,84.273,55.778Zm24.646,1.3a170.81,170.81,0,0,0-4.514-25.295,100.064,100.064,0,0,1,22.675,7.134,100.065,100.065,0,0,1,7.057,22.752,172.673,172.673,0,0,0-25.217-4.592Zm28.538,8.2c11.674,3.5,20.054,8.068,23.219,13.127a27.558,27.558,0,0,0,.13,3.269H138.754a116.227,116.227,0,0,0-1.3-16.344Z" transform="translate(0 0)" fill="#fff"/>
    <path id="Path_50" data-name="Path 50" d="M34.886,50.256A28.774,28.774,0,1,1,75.591,90.935a2.587,2.587,0,1,0,3.684,3.632A33.96,33.96,0,0,0,31.254,46.6a2.577,2.577,0,1,0,3.632,3.658Z" transform="translate(48.583 59.77)" fill="#fff"/>
    <path id="Path_51" data-name="Path 51" d="M93.087,48.942a44.493,44.493,0,0,1,.234,62.472A2.6,2.6,0,1,0,97,115.1,49.552,49.552,0,0,0,26.958,45.051a2.661,2.661,0,1,0,3.866,3.658,44.493,44.493,0,0,1,62.264.234Z" transform="translate(41.775 50.291)" fill="#fff"/>
    <path id="Path_52" data-name="Path 52" d="M57.823,73.962a2.594,2.594,0,0,0,3.684,0A18.394,18.394,0,0,0,35.563,48.018a2.606,2.606,0,1,0,3.606,3.762A13.205,13.205,0,0,1,57.823,70.434,2.594,2.594,0,0,0,57.823,73.962Z" transform="translate(55.377 69.427)" fill="#fff"/>
  </g>
</svg>
