<svg xmlns="http://www.w3.org/2000/svg" width="35" height="102" viewBox="0 0 35 102">
  <g id="Group_11" data-name="Group 11" transform="translate(-943 -878)">
    <g id="Rectangle_4" data-name="Rectangle 4" transform="translate(943 878)" fill="#fff" stroke="#2bc5ff" stroke-width="5">
      <rect width="35" height="102" rx="17.5" stroke="none"/>
      <rect x="2.5" y="2.5" width="30" height="97" rx="15" fill="none"/>
    </g>
    <g id="Path_22" data-name="Path 22" transform="translate(955 933)" fill="#2bc5ff">
      <path d="M 5.5 30.5 C 3.845789909362793 30.5 2.5 29.15420913696289 2.5 27.5 L 2.5 5.5 C 2.5 3.845789909362793 3.845789909362793 2.5 5.5 2.5 C 7.154210090637207 2.5 8.5 3.845789909362793 8.5 5.5 L 8.5 27.5 C 8.5 29.15420913696289 7.154210090637207 30.5 5.5 30.5 Z" stroke="none"/>
      <path d="M 5.5 5 C 5.224299907684326 5 5 5.224300384521484 5 5.5 L 5 27.5 C 5 27.77569961547852 5.224299907684326 28 5.5 28 C 5.775700092315674 28 6 27.77569961547852 6 27.5 L 6 5.5 C 6 5.224300384521484 5.775700092315674 5 5.5 5 M 5.5 0 C 8.537569999694824 0 11 2.462429046630859 11 5.5 L 11 27.5 C 11 30.53755950927734 8.537569999694824 33 5.5 33 C 2.462430000305176 33 0 30.53755950927734 0 27.5 L 0 5.5 C 0 2.462429046630859 2.462430000305176 0 5.5 0 Z" stroke="none" fill="#2bc5ff"/>
    </g>
  </g>
</svg>
